<?xml version="1.0" standalone="no"?>
<!DOCTYPE svg PUBLIC "-//W3C//DTD SVG 20010904//EN"
 "http://www.w3.org/TR/2001/REC-SVG-20010904/DTD/svg10.dtd">
<svg version="1.0" xmlns="http://www.w3.org/2000/svg"
 width="501.000000pt" height="501.000000pt" viewBox="0 0 501.000000 501.000000"
 preserveAspectRatio="xMidYMid meet">
<metadata>
Created by potrace 1.16, written by Peter Selinger 2001-2019
</metadata>
<g transform="translate(0.000000,501.000000) scale(0.100000,-0.100000)"
fill="#000000" stroke="none">
<path d="M0 2505 l0 -2505 2505 0 2505 0 0 2505 0 2505 -2505 0 -2505 0 0
-2505z m2661 645 c29 -6 71 -19 92 -30 20 -11 45 -20 55 -21 10 0 12 -3 5 -6
-16 -6 -17 -33 -2 -33 6 0 19 5 30 11 13 6 25 7 32 1 7 -5 25 -12 41 -16 22
-5 27 -11 23 -27 -3 -12 0 -22 9 -26 16 -6 20 -78 4 -88 -16 -10 -11 -26 8
-23 11 2 16 -3 14 -14 -2 -11 3 -18 13 -18 17 0 20 -16 5 -25 -5 -3 -10 -1
-10 4 0 6 -8 11 -17 11 -13 0 -14 -3 -5 -12 7 -7 12 -18 12 -26 0 -8 6 -20 14
-26 7 -6 16 -27 20 -46 6 -32 5 -33 -9 -19 -10 10 -26 14 -41 11 l-25 -4 31
-23 30 -22 -25 -13 c-24 -13 -49 -63 -38 -74 4 -3 -1 -6 -11 -6 -9 0 -21 -11
-26 -25 -5 -14 -14 -25 -20 -25 -5 0 -10 -6 -10 -14 0 -8 -6 -16 -14 -19 -8
-3 -16 -16 -18 -29 -4 -29 -33 -35 -47 -10 -7 13 -6 26 5 46 17 35 17 35 -1
32 -22 -3 -47 -43 -44 -69 4 -24 -7 -47 -21 -47 -6 0 -6 9 -1 23 10 26 4 40
-21 50 -11 4 -21 0 -27 -11 -15 -27 -21 -11 -30 89 -2 14 -32 18 -56 9 -34
-13 -34 -56 0 -72 19 -8 28 -8 41 3 16 13 17 11 10 -16 -4 -16 -8 -37 -10 -45
-2 -8 -6 -23 -11 -32 -4 -10 -1 -26 8 -38 14 -20 15 -20 19 -2 3 10 15 21 27
25 11 3 19 1 15 -4 -3 -5 0 -9 5 -9 6 0 11 -4 11 -10 0 -5 -6 -10 -14 -10 -8
0 -18 -9 -21 -20 -4 -13 -18 -23 -36 -27 -16 -3 -29 -12 -29 -19 0 -8 -4 -14
-9 -14 -4 0 -6 -11 -3 -25 2 -14 2 -25 -1 -25 -21 0 -37 16 -38 39 0 23 -1 24
-8 6 -5 -11 -4 -28 1 -38 7 -13 4 -19 -9 -24 -10 -4 -28 -17 -39 -29 -12 -13
-25 -20 -28 -16 -4 3 -4 -2 0 -12 5 -12 9 -14 14 -6 6 9 9 9 16 -1 4 -7 3 -14
-4 -17 -7 -2 -10 -13 -6 -27 3 -14 0 -30 -8 -38 -11 -13 -15 -12 -26 7 -12 19
-12 18 -7 -11 7 -34 -2 -42 -23 -21 -9 9 -12 9 -12 -1 0 -9 -8 -11 -24 -7 -14
3 -28 2 -31 -4 -4 -6 8 -11 29 -11 20 -1 55 -2 78 -3 48 -1 57 -15 28 -41 -14
-13 -23 -15 -32 -7 -10 8 -19 4 -34 -13 -18 -19 -19 -25 -7 -29 30 -12 73 -6
73 9 0 8 4 15 10 15 5 0 9 -6 7 -12 -1 -8 12 -14 36 -16 29 -2 37 -7 33 -18
-4 -10 2 -14 19 -14 13 0 26 -4 29 -9 3 -4 -8 -7 -24 -5 -22 3 -30 -1 -35 -16
-4 -11 -14 -20 -24 -20 -10 0 -26 -9 -37 -21 -16 -17 -16 -22 -4 -29 11 -7 12
-10 2 -10 -7 0 -10 -5 -7 -10 4 -6 32 -8 68 -6 65 5 117 -9 117 -31 0 -7 -6
-13 -12 -13 -9 0 -8 -4 2 -10 12 -8 10 -10 -10 -11 -24 -1 -23 -1 5 -10 35
-10 55 -5 55 15 0 8 15 16 35 20 19 4 35 12 35 18 0 6 10 8 26 4 17 -5 23 -3
19 4 -7 12 14 13 33 2 13 -9 12 -38 -1 -59 -10 -16 -67 -17 -67 -2 0 5 8 9 18
8 28 -2 38 1 24 9 -7 5 -31 6 -55 3 -34 -5 -43 -10 -45 -29 -3 -18 -8 -21 -30
-16 -15 4 -29 7 -32 6 -69 -1 -90 -4 -90 -12 0 -5 11 -10 25 -10 14 0 25 -4
25 -10 0 -5 -8 -10 -17 -10 -15 0 -14 -2 3 -15 18 -13 18 -14 1 -15 -10 0 -25
-7 -34 -16 -9 -9 -22 -12 -32 -8 -36 16 -98 16 -114 -1 -10 -9 -17 -13 -17 -9
0 3 -6 1 -14 -5 -12 -10 -15 -6 -21 18 -4 17 -11 33 -16 36 -5 4 -9 26 -9 50
0 24 -5 56 -11 72 -6 15 -12 66 -14 113 -1 52 -10 110 -23 150 -11 36 -20 76
-19 90 3 33 -22 36 -58 8 -22 -17 -44 -23 -94 -25 -63 -2 -67 -1 -102 33 -54
53 -62 41 -54 -80 3 -55 10 -110 15 -121 5 -11 13 -50 18 -87 8 -61 7 -68 -10
-74 -10 -3 -18 -10 -18 -16 0 -5 -11 -19 -25 -30 -27 -21 -88 -111 -99 -144
-9 -30 -19 -150 -20 -249 -2 -106 -29 -198 -51 -169 -19 26 -35 7 -35 -41 l0
-44 -32 10 c-41 11 -57 27 -39 38 10 6 10 10 1 16 -6 4 -14 4 -17 1 -3 -3 -14
-1 -25 5 -14 8 -17 14 -9 23 20 24 -1 25 -39 1 -20 -13 -54 -27 -74 -30 -32
-6 -52 -25 -26 -25 6 0 10 -7 10 -16 0 -9 -5 -12 -12 -8 -6 4 -17 -1 -25 -11
-12 -18 -13 -18 -13 3 0 12 -3 22 -7 22 -15 0 -86 -80 -72 -80 12 0 11 -2 -1
-10 -13 -9 -12 -12 4 -25 19 -15 19 -15 -2 -15 -12 0 -22 6 -22 14 0 17 -33
31 -38 17 -2 -6 -15 -11 -28 -11 -13 0 -24 -5 -24 -11 0 -6 -7 -3 -16 5 -17
17 -49 22 -39 6 3 -5 13 -10 21 -10 8 0 13 -4 9 -10 -3 -5 -13 -6 -22 -3 -11
4 -14 3 -9 -6 5 -7 16 -9 28 -5 16 5 20 3 15 -9 -3 -8 0 -20 6 -26 8 -8 5 -11
-11 -11 -24 0 -131 97 -151 137 -6 12 -11 47 -11 77 0 47 4 60 31 90 42 49
117 84 211 100 34 6 38 10 43 44 12 87 38 170 75 245 22 43 40 83 40 88 0 31
269 339 297 339 7 0 13 4 13 10 0 10 84 50 106 50 18 0 18 10 -1 38 -24 34
-81 154 -90 187 -14 59 -15 72 -16 175 -1 144 36 290 89 353 16 18 13 21 -12
11 -9 -3 -16 -11 -16 -18 0 -6 -14 -27 -31 -45 -17 -19 -33 -49 -36 -68 -3
-19 -12 -33 -19 -33 -8 0 -14 -4 -14 -10 0 -5 5 -10 10 -10 11 0 14 -33 4 -43
-4 -4 -8 -26 -10 -49 -1 -24 -3 -47 -4 -53 0 -5 2 -38 6 -72 l7 -63 -33 0
c-33 0 -95 31 -117 60 -21 26 -53 137 -53 182 0 49 22 114 61 178 22 36 43 53
101 83 65 33 81 37 148 37 74 1 110 13 110 39 0 10 -31 15 -90 12 -24 -1 -24
0 -4 8 12 5 25 14 29 20 3 6 11 11 16 11 6 0 7 -4 4 -10 -3 -5 -2 -10 4 -10 5
0 12 6 15 13 5 9 7 9 12 -1 5 -10 9 -10 22 0 13 11 14 11 8 -1 -11 -18 23 -8
94 29 207 106 385 141 551 110z m-1681 -82 c-18 -6 -14 -7 18 -4 23 2 40 1 38
-2 -2 -4 64 -7 147 -7 84 0 175 -3 204 -7 29 -5 112 -10 185 -13 73 -3 162 -7
198 -9 36 -1 87 -3 115 -4 39 -2 47 -5 37 -14 -9 -9 -48 -13 -125 -12 -197 1
-569 21 -597 31 -8 3 -55 7 -105 9 -101 4 -215 22 -215 34 0 4 28 8 63 7 46 0
55 -3 37 -9z m2280 -1068 c0 -5 9 -10 20 -10 11 0 20 -4 20 -9 0 -5 14 -11 30
-14 17 -4 30 -13 30 -21 0 -9 10 -21 22 -27 29 -16 48 -35 48 -48 0 -6 5 -11
11 -11 6 0 9 -6 6 -13 -3 -7 4 -19 15 -26 14 -9 19 -20 15 -37 -3 -20 0 -24
19 -24 12 0 29 -7 38 -15 8 -8 21 -15 28 -15 8 0 5 -5 -6 -11 -14 -9 -15 -13
-6 -19 7 -5 9 -13 5 -21 -5 -7 -9 -36 -11 -65 -1 -28 -5 -57 -8 -63 -4 -6 1
-15 11 -19 18 -7 28 -42 13 -42 -5 0 -10 -10 -12 -22 -2 -18 -11 -24 -38 -28
-19 -3 -42 -9 -51 -15 -20 -12 -33 -61 -19 -70 6 -4 3 -16 -10 -32 -11 -14
-20 -31 -20 -39 0 -7 -13 -15 -28 -19 -35 -7 -84 16 -102 50 -13 24 -30 34
-30 17 0 -5 6 -22 14 -38 23 -49 28 -84 12 -84 -7 0 -17 11 -20 25 -4 14 -11
23 -15 20 -5 -3 -11 1 -14 7 -3 10 -7 10 -17 1 -11 -10 -11 -15 0 -28 17 -20
-4 -20 -25 1 -9 9 -19 14 -22 10 -3 -3 4 -14 15 -25 35 -30 27 -43 -15 -23
-27 13 -37 14 -40 5 -3 -7 -13 -13 -22 -13 -10 0 -18 -7 -18 -16 0 -11 7 -14
25 -9 16 4 21 2 17 -6 -4 -6 -19 -9 -35 -6 -15 3 -32 1 -39 -6 -8 -8 -11 -8
-11 3 0 7 -3 11 -6 8 -3 -4 -1 -15 5 -26 6 -11 8 -27 6 -35 -7 -17 -61 -44
-108 -52 -24 -5 -37 -13 -41 -28 -3 -12 -8 -18 -12 -15 -11 12 -34 -20 -27
-37 5 -14 2 -16 -16 -10 -12 4 -28 2 -36 -5 -8 -7 -24 -9 -36 -5 -30 10 -123
7 -127 -3 -1 -5 -15 -7 -31 -4 -17 2 -34 -2 -44 -12 -8 -9 -25 -16 -37 -16
-16 0 -20 -4 -16 -15 6 -17 -9 -21 -19 -5 -4 6 -10 8 -14 5 -9 -5 -43 30 -59
61 -6 12 -9 32 -6 45 30 131 33 163 20 207 -5 17 18 31 169 97 33 15 74 33 92
41 17 8 40 14 50 14 10 0 24 5 29 10 11 11 147 32 198 31 38 -1 22 16 -19 21
l-30 3 32 15 c17 8 29 19 25 25 -13 21 -10 35 10 35 16 0 18 3 9 14 -9 11 -9
15 1 19 7 3 1 6 -14 6 -21 1 -28 6 -28 20 0 17 -5 19 -37 14 -21 -3 -41 -10
-44 -16 -7 -10 -29 -1 -29 13 0 4 18 11 40 15 22 4 42 11 46 16 3 5 15 7 27 5
12 -1 16 -1 10 1 -20 7 -15 23 7 23 11 0 20 5 20 10 0 6 -6 10 -14 10 -8 0
-18 -4 -21 -10 -3 -5 -17 -10 -31 -10 -14 0 -23 4 -19 9 3 5 -5 11 -17 13 -13
2 -24 11 -26 22 -3 13 0 16 9 11 8 -5 10 -4 5 3 -11 18 13 52 37 52 18 0 19
-2 7 -10 -13 -8 -12 -10 3 -10 9 0 17 5 17 12 0 6 6 3 14 -8 8 -10 10 -20 5
-22 -14 -5 -11 -32 4 -32 6 0 19 4 26 9 9 6 22 6 33 0 13 -7 21 -4 34 17 13
19 14 28 5 33 -8 5 -7 12 6 23 30 26 51 29 58 8 7 -21 35 -35 35 -17 0 21 -18
76 -29 89 -29 34 -71 105 -71 121 0 19 25 22 64 7 16 -6 27 -6 31 0 7 11 74
49 88 50 4 0 7 -4 7 -10z"/>
<path d="M2417 2373 c-3 -2 -32 -7 -64 -9 -32 -2 -77 -9 -101 -15 -37 -10 -43
-15 -38 -33 3 -12 6 -29 6 -38 0 -10 13 -33 30 -51 24 -28 39 -35 81 -40 46
-6 54 -4 80 21 23 22 29 38 35 93 5 54 4 67 -9 72 -8 3 -17 3 -20 0z"/>
</g>
</svg>
